<?xml version="1.0" encoding="UTF-8"?>
<!DOCTYPE svg PUBLIC "-//W3C//DTD SVG 1.1//EN" "http://www.w3.org/Graphics/SVG/1.1/DTD/svg11.dtd">
<!-- Creator: CorelDRAW 2019 -->
<svg xmlns="http://www.w3.org/2000/svg" xml:space="preserve" width="1233px" height="1391px" version="1.1" style="shape-rendering:geometricPrecision; text-rendering:geometricPrecision; image-rendering:optimizeQuality; fill-rule:evenodd; clip-rule:evenodd"
viewBox="0 0 212.1 239.3"
 xmlns:xlink="http://www.w3.org/1999/xlink">
 <defs>
  <style type="text/css">
   <![CDATA[
    .fil0 {fill:#00CC00}
    .fil1 {fill:black;fill-rule:nonzero}
   ]]>
  </style>
 </defs>
 <g id="Layer_x0020_1">
  <metadata id="CorelCorpID_0Corel-Layer"/>
  <g id="_945957632">
   <path class="fil0" d="M66.5 27.26c13.98,-13.19 35.5,-15.87 54.36,-15.87 19.89,0 40.71,3.35 57.82,14.06 11.52,7.21 20.32,17.08 26,29.41 5.3,11.51 7.42,24.08 7.42,36.69 0,37.54 -18.74,80.3 -38.5,111.87 -20.77,33.19 -67.76,40.04 -103.39,33.8 -12.47,-2.19 -25.65,-6.28 -36.5,-12.92 -11.83,-7.23 -21.43,-18.02 -22.6,-32.33 -1.45,-17.68 10.64,-31.32 24.4,-40.58 19.18,-12.92 17.23,-37.3 16.23,-57.63 -0.5,-10.03 -1.18,-21.19 -0.12,-31.95 -5.22,3.35 -11.42,5.28 -18.07,5.28 -18.53,0 -33.55,-15.02 -33.55,-33.54 0,-18.53 15.02,-33.55 33.55,-33.55 16.37,0 30.01,11.74 32.95,27.26z"/>
   <path class="fil1" d="M52.72 177.05c-7.88,5.29 -11.01,9.43 -10.76,12.47 0.21,2.6 3.17,5.53 7.86,8.39 6.47,3.96 15.52,7.03 25.72,8.82 26.55,4.65 59.29,0.47 71.9,-19.67 18.48,-29.52 33.69,-65.99 33.69,-95.51 0,-8.85 -1.39,-16.93 -4.53,-23.75 -3,-6.5 -7.64,-12.03 -14.28,-16.19 -9.37,-5.86 -22.87,-9.25 -41.46,-9.25 -40.72,0 -39.57,23.32 -38.25,49.93 1.47,29.77 3.09,62.56 -29.89,84.76zm-19.17 -168.1c13.58,0 24.6,11.01 24.6,24.6 0,13.58 -11.02,24.6 -24.6,24.6 -13.59,0 -24.6,-11.02 -24.6,-24.6 0,-13.59 11.01,-24.6 24.6,-24.6zm-13.53 182.29c-0.88,-10.82 5.02,-22.03 20.48,-32.43 22.65,-15.25 21.35,-41.58 20.17,-65.49 -1.92,-38.9 -3.6,-72.99 60.19,-72.99 22.85,0 40.22,4.66 53.07,12.7 10.55,6.61 17.91,15.33 22.63,25.57 4.57,9.93 6.59,21.09 6.59,32.95 0,33.85 -16.76,74.58 -37.13,107.13 -18.07,28.86 -60.56,35.63 -94.26,29.72 -12.79,-2.24 -24.54,-6.32 -33.39,-11.73 -10.63,-6.51 -17.51,-15.15 -18.35,-25.43z"/>
  </g>
 </g>
</svg>
